<svg width="19" height="19" viewBox="0 0 19 19" fill="none" xmlns="http://www.w3.org/2000/svg">
<path d="M6.22644 1.94168H4.8186C3.19587 1.94168 2.34375 2.7938 2.34375 4.40912V5.81697C2.34375 7.43229 3.19587 8.2844 4.81119 8.2844H6.21903C7.83435 8.2844 8.68647 7.43229 8.68647 5.81697V4.40912C8.69388 2.7938 7.84176 1.94168 6.22644 1.94168Z" fill="#784FFE"/>
<path d="M14.6957 1.94168H13.2879C11.6726 1.94168 10.8204 2.7938 10.8204 4.40912V5.81697C10.8204 7.43229 11.6726 8.2844 13.2879 8.2844H14.6957C16.311 8.2844 17.1632 7.43229 17.1632 5.81697V4.40912C17.1632 2.7938 16.311 1.94168 14.6957 1.94168Z" fill="#784FFE"/>
<path d="M14.6957 10.4109H13.2879C11.6726 10.4109 10.8204 11.2631 10.8204 12.8784V14.2862C10.8204 15.9016 11.6726 16.7537 13.2879 16.7537H14.6957C16.311 16.7537 17.1632 15.9016 17.1632 14.2862V12.8784C17.1632 11.2631 16.311 10.4109 14.6957 10.4109Z" fill="#784FFE"/>
<path d="M6.22644 10.4109H4.8186C3.19587 10.4109 2.34375 11.2631 2.34375 12.8784V14.2862C2.34375 15.909 3.19587 16.7611 4.81119 16.7611H6.21903C7.83435 16.7611 8.68647 15.909 8.68647 14.2936V12.8858C8.69388 11.2631 7.84176 10.4109 6.22644 10.4109Z" fill="#784FFE"/>
</svg>
