<svg width="100" height="50" viewBox="0 0 213 95" fill="none" xmlns="http://www.w3.org/2000/svg">
<path d="M1 93.5L10.4521 87.4256L17.4384 71.8058L19.9041 73.9752L23.6027 68.3347H26.8904L30.1781 53.1488L36.3425 54.8843L42.0959 53.5826L44.5616 50.1116L58.5342 60.0909L60.1781 55.3182H63.4658L66.3425 46.6405L75.3836 53.1488H79.4932L81.137 46.6405H84.0137L86.4795 37.9628H92.6438L97.9863 23.2107L104.562 26.2479H109.904L115.247 34.0579L121.822 30.1529L129.219 31.0207L136.205 39.2645L139.082 34.0579L148.123 27.9835L150.589 20.6074L157.164 14.9669L164.151 18.8719L172.37 12.7975L177.712 4.11983L182.644 15.4008L190.452 23.6446L194.973 16.2686L201.548 14.9669L211 1.08264" stroke="#784FFE" stroke-width="3"/>
</svg>
